<svg width="29" height="29" viewBox="0 0 29 29" fill="none" xmlns="http://www.w3.org/2000/svg">
<g clip-path="url(#clip0)">
<path d="M14.5 5.4375C14.7404 5.4375 14.9709 5.53298 15.1408 5.70293C15.3108 5.87289 15.4062 6.1034 15.4062 6.34375V9.96875C15.4062 10.2091 15.3108 10.4396 15.1408 10.6096C14.9709 10.7795 14.7404 10.875 14.5 10.875C14.2596 10.875 14.0291 10.7795 13.8592 10.6096C13.6892 10.4396 13.5938 10.2091 13.5938 9.96875V6.34375C13.5938 6.1034 13.6892 5.87289 13.8592 5.70293C14.0291 5.53298 14.2596 5.4375 14.5 5.4375ZM21.75 19.9375C21.75 21.8603 20.9862 23.7044 19.6265 25.064C18.2669 26.4237 16.4228 27.1875 14.5 27.1875C12.5772 27.1875 10.7331 26.4237 9.37348 25.064C8.01384 23.7044 7.25 21.8603 7.25 19.9375V9.0625C7.25 7.13968 8.01384 5.29561 9.37348 3.93598C10.7331 2.57634 12.5772 1.8125 14.5 1.8125C16.4228 1.8125 18.2669 2.57634 19.6265 3.93598C20.9862 5.29561 21.75 7.13968 21.75 9.0625V19.9375ZM14.5 0C12.0965 0 9.79139 0.954796 8.09184 2.65434C6.3923 4.35389 5.4375 6.65898 5.4375 9.0625V19.9375C5.4375 22.341 6.3923 24.6461 8.09184 26.3457C9.79139 28.0452 12.0965 29 14.5 29C16.9035 29 19.2086 28.0452 20.9082 26.3457C22.6077 24.6461 23.5625 22.341 23.5625 19.9375V9.0625C23.5625 6.65898 22.6077 4.35389 20.9082 2.65434C19.2086 0.954796 16.9035 0 14.5 0V0Z" fill="#2A28A9"/>
</g>
<defs>
<clipPath id="clip0">
<rect width="29" height="29" fill="white"/>
</clipPath>
</defs>
</svg>
